<svg width="19" height="19" viewBox="0 0 19 19" fill="none" xmlns="http://www.w3.org/2000/svg">
<path d="M17.3901 2.90787L18.0398 2.2673C18.2122 2.09498 18.309 1.86127 18.309 1.61758C18.309 1.37388 18.2122 1.14017 18.0398 0.967854C17.8675 0.795537 17.6338 0.69873 17.3901 0.69873C17.1464 0.69873 16.9127 0.795537 16.7404 0.967854L15.4593 2.25815L12.8695 4.84788L7.09524 10.613C6.14907 9.98876 5.00485 9.73796 3.88431 9.9092C2.76377 10.0804 1.74668 10.6615 1.03013 11.5399C0.313576 12.4182 -0.0514261 13.5313 0.0058485 14.6634C0.0631231 15.7955 0.538597 16.866 1.34014 17.6676C2.14168 18.4691 3.21222 18.9446 4.34432 19.0019C5.47642 19.0591 6.58948 18.6941 7.46783 17.9776C8.34617 17.261 8.92726 16.2439 9.0985 15.1234C9.26974 14.0028 9.01894 12.8586 8.39469 11.9125L13.5101 6.78789L15.4501 8.73706C15.5354 8.82178 15.6366 8.88887 15.7479 8.93449C15.8591 8.98011 15.9783 9.00337 16.0985 9.00294C16.2187 9.00252 16.3377 8.97842 16.4486 8.93201C16.5596 8.8856 16.6603 8.8178 16.745 8.73248C16.8297 8.64716 16.8968 8.54598 16.9424 8.43473C16.988 8.32348 17.0113 8.20434 17.0109 8.0841C17.0104 7.96386 16.9863 7.84488 16.9399 7.73396C16.8935 7.62303 16.8257 7.52234 16.7404 7.43761L14.8004 5.4976L16.0998 4.20731L16.7404 4.84788C16.8251 4.9332 16.9258 5.001 17.0367 5.04741C17.1477 5.09381 17.2666 5.11792 17.3869 5.11834C17.5071 5.11877 17.6263 5.09551 17.7375 5.04988C17.8488 5.00426 17.9499 4.93718 18.0353 4.85246C18.1206 4.76773 18.1884 4.66704 18.2348 4.55611C18.2812 4.44519 18.3053 4.32621 18.3057 4.20597C18.3062 4.08573 18.2829 3.96658 18.2373 3.85533C18.1917 3.74409 18.1246 3.64291 18.0398 3.55759L17.3901 2.90787ZM4.57872 17.1743C4.03575 17.1743 3.50497 17.0133 3.05351 16.7116C2.60205 16.41 2.25018 15.9812 2.04239 15.4796C1.83461 14.9779 1.78024 14.4259 1.88617 13.8934C1.9921 13.3609 2.25356 12.8717 2.6375 12.4878C3.02143 12.1038 3.5106 11.8424 4.04314 11.7364C4.57567 11.6305 5.12766 11.6849 5.6293 11.8927C6.13094 12.1004 6.55969 12.4523 6.86135 12.9038C7.16301 13.3552 7.32402 13.886 7.32402 14.429C7.32402 15.1571 7.03478 15.8554 6.51994 16.3702C6.0051 16.885 5.30682 17.1743 4.57872 17.1743Z" fill="#65558F"/>
</svg>
